<?xml version="1.0" standalone="no"?>
<!DOCTYPE svg PUBLIC "-//W3C//DTD SVG 20010904//EN"
 "http://www.w3.org/TR/2001/REC-SVG-20010904/DTD/svg10.dtd">
<svg version="1.0" xmlns="http://www.w3.org/2000/svg"
 width="512.000000pt" height="512.000000pt" viewBox="0 0 512.000000 512.000000"
 preserveAspectRatio="xMidYMid meet">
<metadata>
Created by potrace 1.11, written by Peter Selinger 2001-2013
</metadata>
<g transform="translate(0.000000,512.000000) scale(0.100000,-0.100000)"
fill="#000000" stroke="none">
<path d="M4312 5052 c-37 -37 -137 -141 -222 -231 -186 -197 -195 -206 -385
-406 -82 -87 -161 -170 -175 -185 -14 -14 -93 -98 -177 -186 -83 -87 -177
-186 -208 -219 -100 -105 -367 -386 -456 -480 -48 -49 -106 -110 -129 -135
-23 -25 -81 -86 -129 -136 -47 -50 -153 -162 -236 -249 -82 -86 -192 -201
-242 -254 -66 -68 -94 -106 -99 -129 -8 -42 11 -81 47 -96 17 -7 150 -11 397
-11 368 0 372 0 366 -20 -4 -11 -14 -31 -24 -45 -17 -25 -507 -836 -541 -897
-10 -18 -29 -49 -43 -70 -13 -21 -118 -193 -232 -383 -230 -384 -220 -367
-287 -479 -41 -68 -53 -81 -75 -82 -15 0 -106 -2 -202 -4 -235 -4 -456 -20
-545 -39 -5 -1 -26 -6 -45 -10 -64 -13 -141 -48 -151 -69 -19 -34 -21 -75 -5
-105 31 -61 178 -97 481 -119 220 -16 997 -8 1130 12 17 2 50 6 75 9 63 6 174
33 214 52 57 28 73 73 51 144 -8 25 -93 64 -175 80 -36 6 -72 13 -80 15 -15 3
-146 15 -225 20 -22 2 -73 4 -114 6 l-74 2 45 41 c24 23 83 76 130 119 128
116 139 126 188 171 25 23 85 77 134 121 50 44 97 87 106 95 26 25 183 167
207 188 13 10 66 59 120 108 106 97 180 164 418 379 61 55 115 104 121 110 6
5 53 48 104 95 51 47 98 90 104 95 6 6 51 46 101 90 49 44 99 89 110 100 12
11 44 40 71 64 27 23 72 64 99 90 28 25 120 109 205 186 85 76 182 164 215
194 33 31 103 94 155 141 181 163 200 183 200 221 0 43 -21 74 -57 86 -16 5
-238 9 -495 8 -258 0 -468 1 -468 4 0 2 69 155 154 340 85 185 168 365 184
401 16 36 57 124 90 195 32 72 69 153 82 180 29 65 74 161 117 255 55 118 76
165 78 170 1 3 13 30 27 60 113 244 158 349 158 366 0 41 -13 63 -45 78 -56
27 -72 21 -143 -52z"/>
<path d="M1115 1881 c-55 -16 -75 -48 -75 -120 0 -54 -2 -55 -54 -52 -84 4
-135 -47 -116 -118 12 -46 44 -63 118 -64 l50 0 4 -65 c4 -55 8 -68 32 -88 30
-26 62 -30 99 -13 33 15 47 49 47 113 l0 53 62 1 c57 0 65 3 91 32 30 33 32
65 9 107 -15 27 -43 37 -107 38 l-50 1 -6 66 c-3 37 -11 73 -18 82 -16 20 -61
34 -86 27z"/>
<path d="M3500 1233 c-28 -25 -31 -35 -33 -90 -2 -60 -3 -63 -27 -64 -115 -4
-150 -25 -150 -91 0 -62 32 -85 130 -90 l45 -3 2 -45 c0 -25 2 -52 2 -61 2
-28 47 -65 84 -67 24 -2 41 5 60 22 29 27 29 27 31 101 l1 50 59 3 c66 3 100
21 114 60 15 44 -3 87 -43 107 -20 9 -46 16 -58 15 -69 -6 -74 -3 -72 42 4 85
-19 121 -84 133 -24 4 -37 -1 -61 -22z"/>
</g>
</svg>
