<?xml version="1.0" standalone="no"?>
<!DOCTYPE svg PUBLIC "-//W3C//DTD SVG 20010904//EN"
 "http://www.w3.org/TR/2001/REC-SVG-20010904/DTD/svg10.dtd">
<svg version="1.0" xmlns="http://www.w3.org/2000/svg"
 width="1000.000000pt" height="1000.000000pt" viewBox="0 0 1000.000000 1000.000000"
 preserveAspectRatio="xMidYMid meet">
<metadata>
Created by potrace 1.11, written by Peter Selinger 2001-2013
</metadata>
<g transform="translate(0.000000,1000.000000) scale(0.100000,-0.100000)"
fill="#000000" stroke="none">
<path d="M375 8988 c4 -348 8 -772 10 -943 2 -170 6 -827 10 -1460 3 -632 8
-1178 11 -1212 l6 -63 2249 0 2249 0 0 435 0 435 -137 1 c-76 0 -388 2 -693 4
-305 2 -924 6 -1374 9 -451 3 -821 7 -823 9 -1 2 -5 565 -8 1250 l-6 1247
3170 -5 3170 -5 208 137 c115 75 372 245 573 378 201 132 416 274 478 314 62
41 111 75 109 77 -2 2 -1011 6 -2243 9 -1231 3 -3302 7 -4602 10 l-2363 5 6
-632z"/>
<path d="M3550 7655 l0 -465 1445 0 1445 0 0 -1190 c0 -945 -3 -1190 -12
-1191 -15 -1 -345 -5 -1278 -14 -382 -3 -852 -8 -1045 -10 -192 -2 -394 -4
-447 -4 l-98 -1 0 -475 0 -475 408 0 c224 -1 1286 -3 2360 -5 l1952 -5 -5 292
c-3 161 -7 442 -10 623 -3 182 -7 454 -10 605 -5 305 -15 925 -20 1240 -5 325
-17 1049 -20 1230 -2 91 -4 198 -4 238 l-1 72 -2330 0 -2330 0 0 -465z"/>
<path d="M642 4782 l-242 -2 2 -2154 c2 -1185 6 -2157 9 -2160 3 -3 129 -8
280 -11 151 -3 400 -7 554 -10 154 -3 406 -7 560 -10 154 -2 406 -7 560 -10
154 -3 405 -7 557 -10 l278 -5 -5 657 c-9 1448 -17 2500 -20 2928 -2 248 -4
528 -4 623 l-1 173 -1142 -3 c-629 -2 -1252 -4 -1386 -6z"/>
<path d="M3563 3403 c2 -5 11 -24 20 -43 8 -19 31 -69 50 -110 19 -41 96 -212
171 -380 76 -168 141 -312 146 -321 9 -18 354 -774 382 -839 11 -25 23 -52 27
-60 5 -8 95 -206 201 -440 106 -234 205 -452 220 -485 45 -96 91 -197 111
-242 l18 -43 193 0 c106 0 1153 -3 2327 -6 l2134 -5 -65 68 c-90 95 -206 218
-266 283 -27 30 -70 76 -94 101 -190 201 -303 322 -318 338 -9 11 -70 77 -136
147 -65 69 -134 143 -153 163 -52 56 -268 287 -343 365 -36 39 -81 87 -98 106
-28 30 -89 95 -294 314 -21 22 -65 70 -99 106 -33 36 -119 128 -191 204 -72
77 -162 174 -201 215 -38 41 -92 97 -118 125 -27 28 -92 98 -145 155 -116 125
-129 139 -210 224 l-62 67 -1606 0 c-883 0 -1603 -3 -1601 -7z"/>
</g>
</svg>
